<svg xmlns="http://www.w3.org/2000/svg" width="46" height="53.87" viewBox="0 0 46 53.87">
  <path id="Android_2" data-name="Android 2" d="M360.941,641.9l-.006-5.11c-1.8.137-3.316.152-3.884.152h-.173c-.052,0-1.271-.018-1.935-.05l0,5.009a3,3,0,0,1-6,0l-.03-5.633a9.572,9.572,0,0,1-5.122-3.109,3.968,3.968,0,0,1-.849-1.842V612.879c0-1.85,1.98-2,2-2l25.938.062a2.022,2.022,0,0,1,2,2v18.437c0,2.11-2.02,3.7-6,4.741l.065,5.781a3,3,0,0,1-6,0Zm14-13.961v-14a3,3,0,1,1,6,0v14a3,3,0,0,1-6,0Zm-40,0v-14a3,3,0,1,1,6,0v14a3,3,0,0,1-6,0Zm37.938-18.958H342.941a16.869,16.869,0,0,1,1.493-6.853,16.476,16.476,0,0,1,4.028-5.547c.142-.127-.107-.616-.452-1.294-.613-1.2-1.538-3.02-.919-4.237a1.065,1.065,0,0,1,.118-.006c.832,0,1.684.976,2.333,1.825.185.242.357.48.524.71.453.624.808,1.115,1.007,1.115a.107.107,0,0,0,.05-.013,13.8,13.8,0,0,1,6.818-1.8,12.249,12.249,0,0,1,6.468,1.639.058.058,0,0,0,.031.008c.134,0,.419-.355.814-.845.221-.275.473-.588.751-.9.661-.751,1.656-1.748,2.667-1.748.043,0,.086,0,.126.005a5.386,5.386,0,0,1-1.587,4.673c-.189.2-.314.331-.309.419a.08.08,0,0,0,.032.06,16.323,16.323,0,0,1,4.333,5.662,16.951,16.951,0,0,1,1.611,7.133h0Zm-9.938-6.043a2,2,0,1,0,2-2A2,2,0,0,0,362.94,602.94Zm-14,0a2,2,0,1,0,2-2A2,2,0,0,0,348.94,602.94Z" transform="translate(-334.94 -591.03)" fill="#616161"/>
</svg>
