<svg xmlns="http://www.w3.org/2000/svg" width="54.015" height="64.062" viewBox="0 0 54.015 64.062">
  <path id="Stop_Watch" data-name="Stop Watch" d="M1210.028,642.919a27.056,27.056,0,0,1-16.538-24.95,26.564,26.564,0,0,1,2.141-10.366,29.917,29.917,0,0,1,5.58-8.617,27.474,27.474,0,0,1,7.753-5.888,19.65,19.65,0,0,1,8.659-2.18v-6H1215.6a2.466,2.466,0,0,1-1.009-.223,1.438,1.438,0,0,1-.841-1.4,2.478,2.478,0,0,1,.5-1.735,1.919,1.919,0,0,1,1.5-.577h9.688c.022,0,2.125.15,2.125,2.063a2.079,2.079,0,0,1-2.125,1.938h-2l0,5.925c4.983.456,7.661,1.982,11.051,3.913l.06.034.859.488,2.969-2.969-1.453-1.329,1.891-2.062,5.063,4.188-1.937,1.938-1.188-.938-2.689,3.179a27.2,27.2,0,0,1,1.584,39.765,27,27,0,0,1-29.617,5.8Zm9.554-7.982,1.876.013c0,.04-.1,3.954.029,4.091a.011.011,0,0,0,.008,0,21.073,21.073,0,0,0,14.011-6.115.1.1,0,0,0,.028-.086c-.037-.495-2.4-2.247-2.429-2.265l1.191-1.692a19.559,19.559,0,0,0,3.027,1.938.054.054,0,0,0,.045-.016,20.87,20.87,0,0,0,4.276-11.823.018.018,0,0,0,0-.011,3.09,3.09,0,0,0-.97-.068c-1.212,0-3.163.094-3.182.1l-.074-2.021h.12c.551,0,3.338,0,4.1-.053a20.972,20.972,0,0,0-4.379-11.82.039.039,0,0,0-.034-.013,19.118,19.118,0,0,0-2.784,1.946L1233,605.3s.014-.014.036-.034c.573-.524,1.966-1.782,2.523-2.149a21.458,21.458,0,0,0-14.98-6.224,21.067,21.067,0,0,0-15.045,6.32c.3.365,2.092,1.8,2.167,1.862l-1.574,2.131a19.725,19.725,0,0,0-2.336-2.191.024.024,0,0,0-.02.009,23.448,23.448,0,0,0-4.317,12.029c1.64-.044,3.8-.068,4.037-.07l-.034,1.992c-.014,0-2.2-.086-3.33-.086a2.781,2.781,0,0,0-.676.035l0,0a20.818,20.818,0,0,0,4.228,11.785c.911-.595,2.613-1.833,2.63-1.846l1.5,1.622c-.022.02-2.225,1.984-2.236,2.364a.058.058,0,0,0,.015.046,21.166,21.166,0,0,0,13.907,6.141c-.016-1.455.083-4.072.084-4.1h0Zm-2.145-14.921c0-2.938,2.063-3.093,2.063-3.093V599.985a1,1,0,1,1,2,0v16.874s2,.282,2,3.156a2.99,2.99,0,0,1-3.094,2.969A2.885,2.885,0,0,1,1217.437,620.015Z" transform="translate(-1193.49 -580.984)" fill="#616161"/>
</svg>
