<svg xmlns="http://www.w3.org/2000/svg" width="62" height="58.976" viewBox="0 0 62 58.976">
  <path id="Computer_iMac" data-name="Computer/iMac" d="M625.858,644.976a.855.855,0,0,1-.808-.349c-.326-.569.3-1.642.3-1.653.037-.022,3.646-2.217,3.646-4.178V633l17.989.011v5.906c0,1.968,1.646,2.971,2.848,3.7a5.826,5.826,0,0,1,1,.692.665.665,0,0,1,.226.589c-.1.592-1.049,1.072-1.059,1.077H625.858ZM666,632H610a3,3,0,0,1-3-3V589a3,3,0,0,1,3-3h56a3,3,0,0,1,3,3v40A3,3,0,0,1,666,632Zm-29.085-7.293a1,1,0,0,0-.151.012,1.892,1.892,0,0,0-1.281.785,2.45,2.45,0,0,0-.316,1.906,5.392,5.392,0,0,0,.322,1.082,3.131,3.131,0,0,0,1.218,1.517.652.652,0,0,0,.251.047,1.922,1.922,0,0,0,.634-.156,2.378,2.378,0,0,1,.418-.127.967.967,0,0,1,.155-.013,1.332,1.332,0,0,1,.553.148l.007,0a1.257,1.257,0,0,0,.523.145.824.824,0,0,0,.13-.01c.58-.095.979-.743,1.261-1.3l.031-.06a1.856,1.856,0,0,0,.2-.512,1.48,1.48,0,0,1-.887-.987,1.54,1.54,0,0,1,.688-1.769l.007-.01.007-.01a1.613,1.613,0,0,0-1.443-.7H639.2l-.41.084h-.005c-.047.015-.119.044-.194.076a1.874,1.874,0,0,1-.548.171.22.22,0,0,1-.038,0,2.041,2.041,0,0,1-.422-.143A1.7,1.7,0,0,0,636.915,624.707Zm2.49-1.707a1.351,1.351,0,0,0-.954.436,1.664,1.664,0,0,0-.464,1.189c.035,0,.072.005.111.005a1.188,1.188,0,0,0,.863-.393,1.688,1.688,0,0,0,.443-1.237Z" transform="translate(-607 -586)" fill="#616161"/>
</svg>
