<svg xmlns="http://www.w3.org/2000/svg" width="10.03" height="10.063" viewBox="0 0 10.03 10.063">
  <path id="Phone" d="M916,2027a1,1,0,0,1-1-1v-1a1,1,0,0,1,.59-.908l-.717.063c-.08-.349-.262-.695-.669-.672-.81.045-3.959-.135-4.5.045-.409.136-.551.474-.635,1.136l-.135.012A.982.982,0,0,1,909,2025v1a1,1,0,1,1-2,0v-1a.95.95,0,0,1,.031-.156h0v0a.981.981,0,0,1,.087-.29c.424-1.331,2.394-2.289,2.957-2.429a11.021,11.021,0,0,1,2.3-.184,12.208,12.208,0,0,0,1.517.1c1.057-.038,3.108,1.932,3.108,1.932l-.8.07a.986.986,0,0,1,.8.961v1A1,1,0,0,1,916,2027Zm-8.3,3.06a22.78,22.78,0,0,1,3.108-3.21c1.329-.977,2.185-.094,5.342,3.181a.977.977,0,0,1,.822.852l.054.056h-.043c0,.021.013.039.013.061a1,1,0,0,1-1,1h-8a1,1,0,0,1-1-1A.988.988,0,0,1,907.7,2030.06Zm4.171.527a1.306,1.306,0,1,0-1.306-1.306A1.306,1.306,0,0,0,911.875,2030.587Z" transform="translate(-907 -2021.937)" fill="#ff6760"/>
</svg>
