<svg xmlns="http://www.w3.org/2000/svg" width="59.999" height="56.001" viewBox="0 0 59.999 56.001">
  <g id="Group_3" data-name="Group 3" transform="translate(-888 -584)">
    <path id="Camera_2" data-name="Camera 2" d="M892,645a2,2,0,0,1-2-2V621a2,2,0,0,1,2-2h18s-6.125,1.624-6.125,10.125S909.437,643,916.062,643s14.063-2.938,14.063-13.875c0,0,.25-6.875-6-10.125H942a2,2,0,0,1,2,2v22a2,2,0,0,1-2,2Zm13.937-15.125a10.771,10.771,0,0,1,3.2-7.7,11.013,11.013,0,0,1,15.467,0,10.921,10.921,0,0,1-7.734,18.64A10.95,10.95,0,0,1,905.937,629.875Zm1.943-.185a9.06,9.06,0,1,0,9.059-9.06A9.07,9.07,0,0,0,907.88,629.69Zm4.06.249a5,5,0,1,1,5,5A5,5,0,0,1,911.94,629.94ZM919.875,617c2.25,0,2.162-2.5,2.162-2.5l.088-3.121a2.522,2.522,0,0,0-2.267-2.4l-7.733-.024c-2.25,0-2.175,1.885-2.175,1.885l.014,4.057C909.964,616.769,912,617,912,617H894a4,4,0,0,1-4-4v-2l8.073.059s2.2-1.876,2.177-4.061h23.625c0,6.25,6.125,6,6.125,6l14-.062A4.054,4.054,0,0,1,940,617Zm-5.919-2.06A1.956,1.956,0,0,1,912,612.985,1.985,1.985,0,0,1,913.985,611h4.03A1.984,1.984,0,0,1,920,612.985a1.955,1.955,0,0,1-1.955,1.956ZM932,611a6.007,6.007,0,0,1-6-6V595a6.007,6.007,0,0,1,6-6h10a6.007,6.007,0,0,1,6,6v10a6.007,6.007,0,0,1-6,6Zm1.879-11.03a3.09,3.09,0,1,0,3.091-3.09A3.094,3.094,0,0,0,933.88,599.97ZM890,609a2,2,0,0,1,0-4h6a2,2,0,0,1,0,4Z" transform="translate(0 -5)" fill="#616161"/>
  </g>
</svg>
